<svg version="1.1" xmlns="http://www.w3.org/2000/svg">

    <symbol id="facebook" viewBox="0 0 40 40">
        <g>
            <path d="M16.3386 34V21.4766H12V16.5H16.3386V12.5789C16.3386 8.31875 19.0311 6 22.9624 6C24.8461 6 26.4638 6.13672 26.9333 6.19687V10.6484H24.2069C22.0687 10.6484 21.6558 11.6328 21.6558 13.0711V16.5H26.4808L25.819 21.4766H21.6558V34"/>
        </g>
    </symbol>

    <symbol id="instagram" viewBox="0 0 40 40">
        <g>
            <path d="M20.0027 13.8467C16.5974 13.8467 13.8508 16.594 13.8508 20C13.8508 23.406 16.5974 26.1533 20.0027 26.1533C23.4079 26.1533 26.1546 23.406 26.1546 20C26.1546 16.594 23.4079 13.8467 20.0027 13.8467ZM20.0027 24.0004C17.8021 24.0004 16.0031 22.2064 16.0031 20C16.0031 17.7936 17.7968 15.9996 20.0027 15.9996C22.2086 15.9996 24.0022 17.7936 24.0022 20C24.0022 22.2064 22.2032 24.0004 20.0027 24.0004V24.0004ZM27.8412 13.595C27.8412 14.3929 27.1987 15.0302 26.4062 15.0302C25.6085 15.0302 24.9713 14.3876 24.9713 13.595C24.9713 12.8024 25.6138 12.1598 26.4062 12.1598C27.1987 12.1598 27.8412 12.8024 27.8412 13.595ZM31.9157 15.0517C31.8247 13.1291 31.3856 11.4261 29.9775 10.023C28.5747 8.61988 26.8721 8.18074 24.9499 8.08435C22.9689 7.97188 17.0311 7.97188 15.0501 8.08435C13.1333 8.17539 11.4307 8.61453 10.0225 10.0176C8.61439 11.4207 8.1807 13.1237 8.08433 15.0463C7.97189 17.0278 7.97189 22.9669 8.08433 24.9483C8.17535 26.8709 8.61439 28.5739 10.0225 29.977C11.4307 31.3801 13.1279 31.8193 15.0501 31.9157C17.0311 32.0281 22.9689 32.0281 24.9499 31.9157C26.8721 31.8246 28.5747 31.3855 29.9775 29.977C31.3803 28.5739 31.8193 26.8709 31.9157 24.9483C32.0281 22.9669 32.0281 17.0331 31.9157 15.0517V15.0517ZM29.3564 27.0744C28.9388 28.1241 28.1303 28.9327 27.0755 29.3558C25.496 29.9824 21.7481 29.8378 20.0027 29.8378C18.2572 29.8378 14.504 29.977 12.9298 29.3558C11.8804 28.9381 11.0719 28.1294 10.649 27.0744C10.0225 25.4946 10.1671 21.7458 10.1671 20C10.1671 18.2542 10.0279 14.5001 10.649 12.9256C11.0666 11.8759 11.8751 11.0673 12.9298 10.6442C14.5093 10.0176 18.2572 10.1622 20.0027 10.1622C21.7481 10.1622 25.5014 10.023 27.0755 10.6442C28.1249 11.0619 28.9334 11.8706 29.3564 12.9256C29.9828 14.5054 29.8383 18.2542 29.8383 20C29.8383 21.7458 29.9828 25.4999 29.3564 27.0744Z"/>
        </g>
    </symbol>

    <symbol id="twitter" viewBox="0 0 40 40">
        <g>
            <path d="M30.5331 15.9844C30.5483 16.2031 30.5483 16.4219 30.5483 16.6406C30.5483 23.3125 25.5991 31 16.5533 31C13.7665 31 11.1777 30.1718 9 28.7344C9.39595 28.7812 9.77663 28.7969 10.1878 28.7969C12.4873 28.7969 14.6041 28 16.2944 26.6406C14.132 26.5938 12.3198 25.1406 11.6954 23.1406C12 23.1875 12.3046 23.2187 12.6244 23.2187C13.066 23.2187 13.5077 23.1562 13.9188 23.0469C11.665 22.5781 9.97458 20.5469 9.97458 18.0937V18.0313C10.6294 18.4063 11.3909 18.6406 12.1979 18.6719C10.873 17.7656 10.0051 16.2187 10.0051 14.4687C10.0051 13.5312 10.2487 12.6719 10.6751 11.9219C13.0964 14.9843 16.736 16.9843 20.8172 17.2031C20.7411 16.8281 20.6954 16.4375 20.6954 16.0469C20.6954 13.2656 22.8883 11 25.6142 11C27.0304 11 28.3096 11.6094 29.2081 12.5937C30.3198 12.375 31.3858 11.9531 32.33 11.375C31.9644 12.5469 31.1878 13.5313 30.1675 14.1562C31.1574 14.0469 32.1168 13.7656 33 13.375C32.3301 14.375 31.4924 15.2656 30.5331 15.9844V15.9844Z"/>
        </g>
    </symbol>

</svg>